HIERARCHY
ROOT Hips
{
	OFFSET 0.00000 0.00000 0.00000
	CHANNELS 6 Xposition Yposition Zposition Zrotation Yrotation Xrotation 
	JOINT LHipJoint
	{
		OFFSET 0 0 0
		CHANNELS 3 Zrotation Yrotation Xrotation
		JOINT LeftUpLeg
		{
			OFFSET 1.62964 -1.40469 0.78906
			CHANNELS 3 Zrotation Yrotation Xrotation
			JOINT LeftLeg
			{
				OFFSET 2.29640 -6.30932 0.00000
				CHANNELS 3 Zrotation Yrotation Xrotation
				JOINT LeftFoot
				{
					OFFSET 2.29451 -6.30412 0.00000
					CHANNELS 3 Zrotation Yrotation Xrotation
					JOINT LeftToeBase
					{
						OFFSET 0.03611 -0.09921 1.56387
						CHANNELS 3 Zrotation Yrotation Xrotation
						End Site
						{
							OFFSET 0.00000 -0.00000 0.80291
						}
					}
				}
			}
		}
	}
	JOINT RHipJoint
	{
		OFFSET 0 0 0
		CHANNELS 3 Zrotation Yrotation Xrotation
		JOINT RightUpLeg
		{
			OFFSET -1.73712 -1.40469 0.78906
			CHANNELS 3 Zrotation Yrotation Xrotation
			JOINT RightLeg
			{
				OFFSET -2.28137 -6.26801 0.00000
				CHANNELS 3 Zrotation Yrotation Xrotation
				JOINT RightFoot
				{
					OFFSET -2.28681 -6.28298 0.00000
					CHANNELS 3 Zrotation Yrotation Xrotation
					JOINT RightToeBase
					{
						OFFSET -0.15927 -0.43759 1.61103
						CHANNELS 3 Zrotation Yrotation Xrotation
						End Site
						{
							OFFSET -0.00000 -0.00000 0.84630
						}
					}
				}
			}
		}
	}
	JOINT LowerBack
	{
		OFFSET 0 0 0
		CHANNELS 3 Zrotation Yrotation Xrotation
		JOINT Spine
		{
			OFFSET -0.04227 2.04338 -0.00225
			CHANNELS 3 Zrotation Yrotation Xrotation
			JOINT Spine1
			{
				OFFSET -0.02148 2.04482 -0.04273
				CHANNELS 3 Zrotation Yrotation Xrotation
				JOINT Neck
				{
					OFFSET 0 0 0
					CHANNELS 3 Zrotation Yrotation Xrotation
					JOINT Neck1
					{
						OFFSET 0.09180 1.44629 0.19359
						CHANNELS 3 Zrotation Yrotation Xrotation
						JOINT Head
						{
							OFFSET 0.00887 1.40645 0.14750
							CHANNELS 3 Zrotation Yrotation Xrotation
							End Site
							{
								OFFSET -0.00669 1.50671 0.03707
							}
						}
					}
				}
				JOINT LeftShoulder
				{
					OFFSET 0 0 0
					CHANNELS 3 Zrotation Yrotation Xrotation
					JOINT LeftArm
					{
						OFFSET 2.17674 1.86763 -0.06520
						CHANNELS 3 Zrotation Yrotation Xrotation
						JOINT LeftForeArm
						{
							OFFSET 4.65776 -0.00000 0.00000
							CHANNELS 3 Zrotation Yrotation Xrotation
							JOINT LeftHand
							{
								OFFSET 3.55539 -0.00000 0.00000
								CHANNELS 3 Zrotation Yrotation Xrotation
								JOINT LeftFingerBase
								{
									OFFSET 0 0 0
									CHANNELS 3 Zrotation Yrotation Xrotation
									JOINT LeftHandIndex1
									{
										OFFSET 0.70726 -0.00000 0.00000
										CHANNELS 3 Zrotation Yrotation Xrotation
										End Site
										{
											OFFSET 0.57022 -0.00000 0.00000
										}
									}
								}
								JOINT LThumb
								{
									OFFSET 0 0 0
									CHANNELS 3 Zrotation Yrotation Xrotation
									End Site
									{
										OFFSET 0.57892 -0.00000 0.57892
									}
								}
							}
						}
					}
				}
				JOINT RightShoulder
				{
					OFFSET 0 0 0
					CHANNELS 3 Zrotation Yrotation Xrotation
					JOINT RightArm
					{
						OFFSET -2.80694 1.55459 -0.32496
						CHANNELS 3 Zrotation Yrotation Xrotation
						JOINT RightForeArm
						{
							OFFSET -4.71925 -0.00000 -0.00000
							CHANNELS 3 Zrotation Yrotation Xrotation
							JOINT RightHand
							{
								OFFSET -3.56990 -0.00000 0.00000
								CHANNELS 3 Zrotation Yrotation Xrotation
								JOINT RightFingerBase
								{
									OFFSET 0 0 0
									CHANNELS 3 Zrotation Yrotation Xrotation
									JOINT RightHandIndex1
									{
										OFFSET -0.50776 -0.00000 0.00000
										CHANNELS 3 Zrotation Yrotation Xrotation
										End Site
										{
											OFFSET -0.40937 -0.00000 0.00000
										}
									}
								}
								JOINT RThumb
								{
									OFFSET 0 0 0
									CHANNELS 3 Zrotation Yrotation Xrotation
									End Site
									{
										OFFSET -0.41562 -0.00000 0.41562
									}
								}
							}
						}
					}
				}
			}
		}
	}
}
MOTION
Frames: 16
Frame Time: .0083333
16.4147 16.364 21.5972 0 0 0 0 0 0 -21 0 0 0 0 0 0 0 0 0 0 0 0 0 0 21 0 0 0 0 0 0 0 0 0 0 0 0 0 0 0 0 0 0 0 0 0 0 -16 0 0 21 0 0 11 0 0 0 -8 0 0 0 0 0 0 0 0 0 0 0 0 0 0 0 0 0 0 0 0 8 0 0 0 0 0 0 0 0 0 0 0 0 0 0 0 0 0
16.4147 16.3640 21.5972 178.5530 -0.5245 -154.7370 0.0000 0.0000 0.0000 -20.8095 -15.9278 -20.4026 0.1935 2.8327 7.8134 0.1337 -2.5751 -6.4956 6.9519 -15.2913 -48.6923 0.0000 0.0000 0.0000 18.0463 14.0539 -20.2022 -0.1457 -2.4598 6.7782 -0.8359 4.0646 -16.3848 -0.5039 4.5506 -12.6312 -7.5486 -1.4283 -30.8499 0.0660 -0.0461 -1.6837 4.0597 -0.8229 14.2246 -0.5529 -2.5043 -5.3075 3.5842 -4.2672 13.0962 0.9343 -2.0846 4.8921 0.0000 0.0000 0.0000 -85.5571 -2.8764 28.3547 11.8349 -19.5565 -2.0467 -0.0000 -0.0000 1.2052 23.8170 -11.6934 -5.1122 -7.1250 0.0000 -0.0000 -2.3390 17.2386 1.5421 0.0000 0.0000 0.0000 90.9983 -2.6729 9.1018 -18.4278 28.7014 -4.7529 0.0000 0.0000 1.9219 -21.9239 -60.0453 19.2246 7.1250 -0.0000 -0.0000 -169.2614 -2.2752 10.4919
16.4164 16.3603 21.5992 178.5240 -0.3874 -154.6450 0.0000 0.0000 0.0000 -20.8331 -16.0145 -20.4396 0.1887 2.7977 7.7160 0.1328 -2.3819 -6.4702 6.9819 -15.3166 -48.8059 0.0000 0.0000 0.0000 17.9742 14.0308 -20.3937 -0.1478 -2.4772 6.8265 -0.8362 4.2046 -16.3741 -0.5198 4.6206 -12.8296 -7.5583 -1.3838 -31.0180 0.0289 0.0340 -1.6496 4.0546 -0.7928 14.3281 -0.6730 -2.5204 -5.2981 3.8086 -4.2841 12.8733 1.0240 -2.0832 4.8296 0.0000 -0.0000 0.0000 -85.4802 -3.1037 28.6462 11.9795 -19.7739 -2.0954 -0.0000 -0.0000 0.6903 23.3539 -11.3255 -4.8468 -7.1250 0.0000 -0.0000 -2.6456 17.6811 1.7189 0.0000 -0.0000 0.0000 90.9596 -2.5652 9.1274 -18.4054 28.6732 -4.7422 0.0000 0.0000 1.7105 -20.7099 -55.0789 17.2230 7.1250 -0.0000 -0.0000 -10.1361 4.5019 -170.5386
16.4187 16.3643 21.5897 178.3280 -0.9147 -154.9950 0.0000 0.0000 0.0000 -21.0569 -16.1391 -19.9469 0.1865 2.7816 7.6713 0.1228 -2.6398 -6.2330 6.9177 -15.2622 -48.5623 0.0000 0.0000 0.0000 17.9679 13.7087 -19.6793 -0.1284 -2.3094 6.3614 -0.8474 3.7285 -16.5379 -0.5446 4.7279 -13.1341 -7.6619 -1.5819 -30.7189 -0.0010 -0.1718 -1.5419 4.0019 -0.8797 14.3456 -0.6810 -2.5304 -5.3240 3.9020 -4.2986 12.7742 1.0536 -2.0837 4.8061 0.0000 -0.0000 0.0000 -85.4116 -3.1840 28.7572 12.1154 -19.9775 -2.1416 -0.0000 -0.0000 0.5367 23.1743 -11.4653 -4.8636 -7.1250 0.0000 -0.0000 -2.7776 17.5472 1.8130 0.0000 -0.0000 0.0000 90.9834 -2.5599 9.2451 -18.5058 28.7999 -4.7904 0.0000 0.0000 1.6798 -17.6027 -68.8186 16.4801 7.1250 -0.0000 -0.0000 -166.0764 -10.1656 11.6048
16.4188 16.3555 21.5956 178.7090 -0.3516 -154.5960 0.0000 0.0000 0.0000 -20.5701 -16.1152 -20.4272 0.1819 2.7473 7.5761 0.1272 -2.0876 -6.3363 6.9325 -15.2748 -48.6186 0.0000 0.0000 0.0000 18.2345 13.8278 -20.5485 -0.1488 -2.4862 6.8513 -0.8358 4.5860 -16.3405 -0.5658 4.8175 -13.3887 -7.2860 -1.2721 -31.1592 0.0193 0.0924 -1.6520 3.9193 -0.7537 14.3854 -0.5873 -2.5434 -5.4182 3.7393 -4.2905 12.7243 0.9879 -2.0799 4.8011 -0.0000 -0.0000 0.0000 -85.4279 -3.1746 28.7821 12.1947 -20.0960 -2.1687 -0.0000 -0.0000 0.7901 23.4625 -11.4975 -4.9446 -7.1250 0.0000 -0.0000 -2.5774 17.4851 1.6856 -0.0000 -0.0000 0.0000 90.9688 -2.5518 9.5575 -18.6967 29.0401 -4.8827 0.0000 0.0000 1.4030 -20.3651 -57.7569 17.4303 7.1250 -0.0000 -0.0000 -10.7685 2.1809 -169.4591
16.4236 16.3612 21.5950 178.6090 -0.5512 -154.7120 0.0000 0.0000 0.0000 -20.6341 -16.2303 -20.2723 0.1826 2.7521 7.5892 0.1274 -2.1595 -6.3395 6.9354 -15.2772 -48.6296 0.0000 0.0000 0.0000 18.1773 13.8308 -20.4115 -0.1528 -2.5192 6.9430 -0.8553 4.3570 -16.5525 -0.5783 4.8697 -13.5374 -7.4162 -1.3741 -30.9979 0.0374 -0.0030 -1.6501 3.9732 -0.7993 14.3259 -0.5930 -2.5396 -5.4388 3.6526 -4.2552 12.6069 0.9651 -2.0642 4.7659 0.0000 -0.0000 0.0000 -85.4377 -3.1759 28.9256 12.3007 -20.2541 -2.2053 -0.0000 -0.0000 0.7896 23.5887 -11.1561 -4.8292 -7.1250 0.0000 -0.0000 -2.4733 17.8422 1.5980 0.0000 -0.0000 0.0000 90.9063 -2.5706 9.8298 -18.8573 29.2410 -4.9609 0.0000 0.0000 1.2091 -20.5149 -65.5642 18.8122 7.1250 -0.0000 -0.0000 -167.5597 -7.3675 11.0119
16.4279 16.3636 21.5949 178.5320 -0.6026 -154.6920 0.0000 0.0000 0.0000 -20.6838 -16.3159 -20.2777 0.1846 2.7672 7.6314 0.1303 -2.1535 -6.4123 6.9550 -15.2938 -48.7038 0.0000 0.0000 0.0000 18.0803 13.9147 -20.4850 -0.1592 -2.5709 7.0863 -0.8676 4.2520 -16.6846 -0.5781 4.8690 -13.5352 -7.5223 -1.3991 -31.0104 0.0158 0.0006 -1.6666 4.0073 -0.8045 14.3093 -0.6046 -2.5257 -5.3831 3.6419 -4.2220 12.4965 0.9675 -2.0486 4.7218 -0.0000 0.0000 0.0000 -85.3794 -3.2182 29.1291 12.4191 -20.4302 -2.2464 -0.0000 -0.0000 0.4654 23.4605 -11.4241 -4.9131 -7.1250 0.0000 -0.0000 -2.5753 17.5646 1.6798 -0.0000 0.0000 0.0000 90.8940 -2.5792 9.7470 -18.9119 29.3091 -4.9876 0.0000 0.0000 1.6013 -19.7776 -59.9393 17.2869 7.1250 -0.0000 -0.0000 -168.6049 -1.8927 11.2393
16.4313 16.3636 21.5977 178.4540 -0.6029 -154.6130 0.0000 0.0000 0.0000 -20.7342 -16.3420 -20.3994 0.1865 2.7810 7.6697 0.1307 -2.2237 -6.4211 6.8815 -15.2313 -48.4248 0.0000 0.0000 0.0000 17.9937 13.8242 -20.6302 -0.1589 -2.5685 7.0796 -0.8619 4.3150 -16.6221 -0.5733 4.8489 -13.4782 -7.6006 -1.4149 -31.1235 -0.0083 0.0195 -1.6459 4.0291 -0.8044 14.3791 -0.6472 -2.5526 -5.3604 3.6543 -4.2418 12.3739 0.9785 -2.0579 4.6819 0.0000 -0.0000 0.0000 -85.3678 -3.3963 29.1807 12.4212 -20.4333 -2.2472 -0.0000 -0.0000 0.5519 23.5349 -11.5678 -4.9914 -7.1250 0.0000 -0.0000 -2.5300 17.4022 1.6592 0.0000 -0.0000 0.0000 90.8634 -2.4410 9.5847 -18.7918 29.1592 -4.9290 0.0000 0.0000 1.8129 -19.9921 -62.0266 17.8126 7.1250 -0.0000 -0.0000 -168.2294 -3.9291 11.1792
16.4336 16.3630 21.5997 178.3190 -0.5490 -154.5430 0.0000 0.0000 0.0000 -20.8813 -16.3540 -20.4726 0.1861 2.7786 7.6628 0.1290 -2.3182 -6.3769 6.7312 -15.1013 -47.8503 0.0000 0.0000 0.0000 17.8561 13.6218 -20.7842 -0.1589 -2.5683 7.0791 -0.8564 4.5138 -16.5508 -0.5796 4.8749 -13.5522 -7.7326 -1.4502 -31.2033 -0.0283 0.0254 -1.6418 4.0791 -0.8130 14.4153 -0.7317 -2.5551 -5.3876 3.6206 -4.2125 12.2376 0.9845 -2.0452 4.6448 0.0000 -0.0000 0.0000 -85.4224 -3.5512 29.0329 12.3733 -20.3622 -2.2305 -0.0000 -0.0000 0.8771 23.6999 -11.3450 -4.9354 -7.1250 0.0000 -0.0000 -2.4040 17.6273 1.5645 0.0000 -0.0000 0.0000 90.7694 -2.2899 9.6578 -18.5269 28.8265 -4.8006 0.0000 0.0000 1.1283 -21.5448 -57.7378 18.4622 7.1250 -0.0000 -0.0000 -10.3612 1.8875 -169.8161
16.4341 16.3623 21.5952 178.2080 -0.4796 -154.5330 0.0000 0.0000 0.0000 -21.0724 -16.2830 -20.4370 0.1854 2.7729 7.6472 0.1283 -2.4139 -6.3603 6.7364 -15.1059 -47.8703 0.0000 0.0000 0.0000 17.7583 13.3996 -20.8333 -0.1583 -2.5634 7.0655 -0.8532 4.7778 -16.5011 -0.5820 4.8848 -13.5802 -7.8158 -1.4460 -31.2622 -0.0702 0.0652 -1.6491 4.0925 -0.8021 14.4252 -0.8265 -2.4969 -5.3798 3.6899 -4.1102 12.0405 1.0290 -1.9921 4.5839 -0.0000 -0.0000 0.0000 -85.4203 -3.5775 28.9618 12.4019 -20.4046 -2.2404 -0.0000 -0.0000 0.8439 23.5685 -11.2596 -4.8685 -7.1250 0.0000 -0.0000 -2.4921 17.7322 1.6162 -0.0000 -0.0000 0.0000 90.7122 -2.2855 9.9092 -18.6197 28.9434 -4.8454 0.0000 0.0000 1.0231 -23.3472 -59.2542 20.3535 7.1250 -0.0000 -0.0000 -169.8972 -1.7249 9.9515
16.4362 16.3588 21.5960 178.3200 -0.6564 -154.5110 0.0000 0.0000 0.0000 -20.9099 -16.2768 -20.5277 0.1895 2.8036 7.7325 0.1271 -2.5209 -6.3345 6.8372 -15.1933 -48.2559 0.0000 0.0000 0.0000 17.9179 13.4065 -20.8429 -0.1593 -2.5719 7.0892 -0.8555 4.7293 -16.5273 -0.5352 4.6876 -13.0196 -7.6758 -1.4361 -31.2622 -0.0381 0.0227 -1.6683 4.0353 -0.8120 14.4111 -0.9422 -2.4497 -5.3030 3.8823 -4.0327 11.7576 1.1145 -1.9475 4.4886 0.0000 -0.0000 0.0000 -85.3944 -3.6213 29.0503 12.4557 -20.4845 -2.2592 -0.0000 -0.0000 0.6539 23.4634 -11.0313 -4.7478 -7.1250 0.0000 -0.0000 -2.5557 17.9889 1.6431 0.0000 -0.0000 0.0000 90.6799 -2.3410 10.1828 -18.6084 28.9291 -4.8399 0.0000 0.0000 0.2819 -24.8588 -58.9659 21.6527 7.1250 -0.0000 -0.0000 -170.4533 -1.6932 9.3929
16.4396 16.3588 21.5969 178.2110 -0.6060 -154.3990 0.0000 0.0000 0.0000 -21.0327 -16.1973 -20.7410 0.1938 2.8353 7.8204 0.1272 -2.6341 -6.3412 6.9127 -15.2579 -48.5433 0.0000 0.0000 0.0000 17.7348 13.6014 -20.9657 -0.1641 -2.6100 7.1947 -0.8607 4.5709 -16.5894 -0.5255 4.6457 -12.9009 -7.8264 -1.4502 -31.3702 -0.0592 0.0568 -1.6978 4.1041 -0.8102 14.4160 -0.9681 -2.4317 -5.3094 3.9308 -4.0000 11.6502 1.1361 -1.9284 4.4574 -0.0000 0.0000 0.0000 -85.4163 -3.7117 29.0094 12.4610 -20.4924 -2.2611 -0.0000 -0.0000 0.5583 23.4801 -11.0203 -4.7468 -7.1250 0.0000 -0.0000 -2.5435 17.9993 1.6347 -0.0000 0.0000 0.0000 90.6448 -2.3634 9.9990 -18.5755 28.8878 -4.8240 0.0000 0.0000 0.5319 -23.2792 -59.0381 20.2507 7.1250 -0.0000 -0.0000 -169.9268 -1.5067 9.9613
16.4450 16.3583 21.5969 178.2780 -0.5988 -154.3770 0.0000 0.0000 0.0000 -20.9108 -16.1630 -20.8631 0.1995 2.8758 7.9333 0.1286 -2.6707 -6.3774 6.9623 -15.3000 -48.7315 0.0000 0.0000 0.0000 17.8022 13.8258 -20.9292 -0.1639 -2.6085 7.1906 -0.8665 4.3447 -16.6649 -0.5936 4.9327 -13.7167 -7.8042 -1.4498 -31.4234 -0.0241 0.0496 -1.6903 4.1272 -0.8144 14.4498 -0.9327 -2.4797 -5.4248 3.8845 -4.0632 11.6999 1.1107 -1.9576 4.4921 0.0000 -0.0000 0.0000 -85.4726 -3.8031 28.7093 12.4706 -20.5066 -2.2644 -0.0000 -0.0000 0.5756 23.3661 -11.1697 -4.7840 -7.1250 0.0000 -0.0000 -2.6301 17.8483 1.6992 0.0000 -0.0000 0.0000 90.6325 -2.2913 9.9374 -18.5081 28.8029 -4.7915 0.0000 0.0000 0.4316 -23.7898 -62.3178 21.3247 7.1250 -0.0000 -0.0000 -169.2707 -4.7158 9.9913
16.4486 16.3603 21.5923 178.1140 -0.5053 -154.4070 0.0000 0.0000 0.0000 -21.0954 -16.2208 -20.7718 0.1978 2.8640 7.9002 0.1291 -2.6126 -6.3847 6.9559 -15.2947 -48.7075 0.0000 0.0000 0.0000 17.5932 13.8915 -20.8683 -0.1623 -2.5953 7.1539 -0.8700 4.2544 -16.7084 -0.6642 5.2123 -14.5152 -7.9921 -1.5241 -31.5274 -0.0293 0.0401 -1.6152 4.2182 -0.8348 14.5809 -1.0571 -2.5085 -5.5027 3.9986 -4.0956 11.6402 1.1635 -1.9699 4.4925 0.0000 -0.0000 0.0000 -85.5637 -3.8551 28.3497 12.5266 -20.5897 -2.2841 -0.0000 -0.0000 0.7664 23.1424 -11.0399 -4.6790 -7.1250 0.0000 -0.0000 -2.7818 18.0090 1.7876 0.0000 -0.0000 0.0000 90.5557 -2.0764 9.8481 -18.6300 28.9563 -4.8504 0.0000 0.0000 1.7337 -21.8143 -72.9580 20.9411 7.1250 -0.0000 -0.0000 -165.8301 -14.4219 10.5270
16.4486 16.3586 21.5897 178.1900 -0.5753 -154.5800 0.0000 0.0000 0.0000 -21.0753 -16.1179 -20.5358 0.1933 2.8315 7.8101 0.1286 -2.6436 -6.3756 6.9411 -15.2821 -48.6511 0.0000 0.0000 0.0000 17.7661 13.8242 -20.6216 -0.1600 -2.5773 7.1042 -0.8752 4.2832 -16.7570 -0.6811 5.2768 -14.6998 -7.8681 -1.5104 -31.4017 0.0078 0.0157 -1.5687 4.1861 -0.8333 14.5872 -1.0759 -2.5641 -5.6273 3.9851 -4.1773 11.7798 1.1549 -2.0096 4.5585 -0.0000 0.0000 0.0000 -85.6248 -3.8574 28.1344 12.5476 -20.6208 -2.2915 -0.0000 -0.0000 1.0033 23.0947 -10.7735 -4.5574 -7.1250 0.0000 -0.0000 -2.8046 18.3007 1.7842 -0.0000 0.0000 0.0000 90.5408 -2.2440 11.7861 -19.4515 29.9758 -5.2545 0.0000 -0.0000 -1.5825 -67.8290 -80.6809 67.5617 7.1250 -0.0000 -0.0000 -166.4188 -26.3805 6.2997
16.4516 16.3591 21.5894 178.2480 -0.6650 -154.6740 0.0000 0.0000 0.0000 -21.0079 -16.0355 -20.5264 0.1989 2.8721 7.9230 0.1301 -2.7313 -6.4167 6.9604 -15.2984 -48.7243 0.0000 0.0000 0.0000 17.8396 14.0817 -20.4031 -0.1604 -2.5806 7.1132 -0.8865 4.0010 -16.8964 -0.6224 5.0487 -14.0476 -7.8218 -1.5246 -31.2530 0.0540 -0.0378 -1.5987 4.1921 -0.8497 14.4952 -0.9047 -2.6308 -5.6625 3.6914 -4.2545 11.8890 1.0311 -2.0554 4.5902 -0.0000 -0.0000 0.0000 -85.6739 -3.8137 27.9700 12.5214 -20.5820 -2.2823 -0.0000 -0.0000 1.1147 23.1953 -10.6691 -4.5359 -7.1250 0.0000 -0.0000 -2.7295 18.4043 1.7301 -0.0000 -0.0000 0.0000 90.5473 -2.4611 13.4272 -20.2497 30.9420 -5.6592 0.0000 -0.0000 -4.9418 -114.8230 78.1224 -115.2988 7.1250 -0.0000 -0.0000 -166.9154 -34.7808 3.3562
